# xmcd
#
# Track frame offsets:
# 150
# 33975
# 70251
# 96114
# 127423
# 157343
# 181321
# 213586
# 240564
# 268421
# 297663
#
# Disc length: 4362 seconds
#
# Revision: 0
# Processed by: cddbd v1.5.1PL2 Copyright (c) Steve Scherf et al.
# Submitted via: Audion 3.0.2 (http://www.panic.com/audion/)
#
DISCID=b611080b
DTITLE=Tribes of da underground - Vol4
DYEAR=1900
DGENRE=
TTITLE0=switchablade sisters
TTITLE1=fred everything
TTITLE2=fusion forum
TTITLE3=pathless
TTITLE4=rainer truby trio
TTITLE5=guem et zaka
TTITLE6=waiwan
TTITLE7=outside
TTITLE8=sofa surfers
TTITLE9=pressure drop
TTITLE10=max schneider
EXTD=
EXTT0=
EXTT1=
EXTT2=
EXTT3=
EXTT4=
EXTT5=
EXTT6=
EXTT7=
EXTT8=
EXTT9=
EXTT10=
PLAYORDER=
